<?xml version="1.0" encoding="utf-8"?>
<!-- Generator: Adobe Illustrator 18.0.0, SVG Export Plug-In . SVG Version: 6.00 Build 0)  -->
<!DOCTYPE svg PUBLIC "-//W3C//DTD SVG 1.0//EN" "http://www.w3.org/TR/2001/REC-SVG-20010904/DTD/svg10.dtd">
<svg version="1.0" id="pose" xmlns="http://www.w3.org/2000/svg" xmlns:xlink="http://www.w3.org/1999/xlink" x="0px" y="0px"
	 width="475.2px" height="611.4px" viewBox="158.2 0.6 475.2 611.4" enable-background="new 158.2 0.6 475.2 611.4"
	 xml:space="preserve">
<g id="hands">
	<path fill="#E46B1F" stroke="#000000" stroke-miterlimit="10" d="M490,233.3c0,0-13.8,5.8-31.3,5.6c-17.4,0-89.2-8.8-111.5-94.8
		c0,0-49.1-47.1-96.6-45.1c-47.5,2-64.5,26.1-64.9,78l2,5.8l11.2-2.6l4.4-7.8c0,0-2.4-59.9,51.5-59.5s86,43.5,84.8,46.3
		c-1.2,2.6,23.1,111.5,156.4,92.4L490,233.3z"/>
	
		<ellipse transform="matrix(-0.3187 -0.9479 0.9479 -0.3187 433.0715 787.1962)" fill="#941C1C" stroke="#000000" stroke-miterlimit="10" cx="499.5" cy="238" rx="21.4" ry="11.8"/>
	<path fill="#941C1C" stroke="#000000" stroke-miterlimit="10" d="M557.6,209.9c0,0,22.1,18.4,74.8,2.4c0,0-28.7,51.7-79.6,52.7
		c-50.9,1-61.3-44.7-55.9-55.1C499.6,204.3,557.6,209.9,557.6,209.9z"/>
	<path fill="#941C1C" stroke="#000000" stroke-miterlimit="10" d="M500,235.3c0,0-20.6-40.5,34.7-69.4s91.6,0,91.6,0
		s-34.7-6.8-68.8,44.1C523.5,261,500,235.3,500,235.3z"/>
	
		<ellipse transform="matrix(0.561 -0.8278 0.8278 0.561 44.1965 526.2651)" fill="none" stroke="#000000" stroke-miterlimit="10" cx="518.3" cy="221.5" rx="12.2" ry="8"/>
	<rect x="516.9" y="208.9" transform="matrix(-0.7929 -0.6093 0.6093 -0.7929 794.0027 711.7423)" width="2" height="24.1"/>
	
		<ellipse transform="matrix(-0.3004 -0.9538 0.9538 -0.3004 78.9425 432.7466)" fill="#941C1C" stroke="#000000" stroke-miterlimit="10" cx="198.2" cy="187.4" rx="14.6" ry="23.1"/>
	<path fill="#941C1C" stroke="#000000" stroke-miterlimit="10" d="M183.7,320.5c0,0-51.7-78.8-6.4-125.7
		C177.3,194.6,228.4,260.4,183.7,320.5z"/>
	<path fill="#941C1C" stroke="#000000" stroke-miterlimit="10" d="M183.7,320.5c0,0,56.7-68,57.1-103.2
		c0.4-35.5-32.7-33.9-32.7-33.9s-25.1,0-34.1,16C162.5,219.5,224,247,183.7,320.5z"/>
	
		<ellipse transform="matrix(0.3714 0.9285 -0.9285 0.3714 312.5235 -58.5316)" fill="none" stroke="#000000" stroke-miterlimit="10" cx="199.5" cy="201.5" rx="7.6" ry="15"/>
	<rect x="198.6" y="186.5" transform="matrix(-0.3711 -0.9286 0.9286 -0.3711 86.4235 461.752)" width="2" height="30.3"/>
</g>
<path id="legs_1_" fill="#E46B1F" stroke="#000000" stroke-miterlimit="10" d="M342.7,239.3c13.2,9.8,35.3,26.5,46.5,38.7
	c16.8,18-35.5,2.6-35.5,2.6L326.4,253l-16.8,1.4c0,0,19.8,26.1,20.2,30.1c0.4,4-29.7,2.4-29.7,2.4l-3-6c0,0-13-13.6-22.1-33.5
	l8.6,2.6l19,3.6l10.4-3.6h16.4L342.7,239.3z"/>
<g id="skirt_back">
	<path fill="#F59EB3" d="M364.5,231.3l-2.2,15.8l-10,7.2l-17,3.8l-28.5,5h-26.3l-16.8-4l-9.6-11.8l2-11l11-11l2.2,9.2l5.8-0.4
		l9.4,2.2l11.8,8c0,0,6-5.6,7.8-5c1.8,0.8,8.4,1.6,8.4,1.6l13.2-15.8L364.5,231.3z"/>
	<g>
		<g>
			<path fill="#F59EB3" d="M273.1,220.5c0,0-14.6-3.2-12.6,11.6"/>
			<path fill="#EE3524" d="M273.1,220.5c0,0-1.4,0-3.2,0.2c-0.4,0-1,0.2-1.6,0.2c-0.6,0.2-1,0.2-1.6,0.4s-1,0.4-1.6,0.6
				c-0.4,0.4-1,0.6-1.4,1c-0.4,0.4-0.8,0.8-1.2,1.2s-0.6,1-0.8,1.4c-0.2,0.6-0.4,1-0.6,1.6c-0.2,0.6-0.2,1-0.2,1.4
				c-0.2,1-0.2,1.8-0.4,2.4c0,0.6-0.2,1-0.2,1s-0.2-0.4-0.2-0.8c0-0.2-0.2-0.6-0.2-1c-0.2-0.4-0.2-0.8-0.2-1.4c0-0.6,0-1,0-1.6
				s0.2-1.2,0.4-2c0.2-0.6,0.4-1.4,0.8-2c0.4-0.6,0.8-1.2,1.4-1.6c0.6-0.6,1.2-0.8,1.8-1.2c0.6-0.2,1.4-0.6,2-0.6
				c0.6-0.2,1.2-0.2,1.8-0.2s1.2,0,1.6,0C271.7,219.9,273.1,220.5,273.1,220.5z"/>
		</g>
		<g>
			<path fill="#F59EB3" d="M261.1,233.1c0,0-8.4-2.6-10.6,6.2c-2.4,9,5.4,14.2,5.4,14.2"/>
			<path fill="#EE3524" d="M261.1,233.1c0,0-0.4,0-1.2,0c-0.8,0-2,0-3.2,0.4c-0.6,0.2-1.2,0.4-1.8,1c-0.6,0.4-1.2,1-1.6,1.6
				c-0.2,0.4-0.4,0.6-0.6,1c-0.2,0.4-0.4,0.8-0.6,1.2s-0.2,0.8-0.4,1.2c-0.2,0.2-0.2,0.8-0.2,1.2c-0.2,0.4-0.2,0.8-0.2,1.4
				c0,0.4,0,0.8,0,1.2c0,0.8,0,1.6,0.2,2.4c0.2,0.8,0.4,1.6,0.8,2.2c0.2,0.8,0.6,1.4,1,2c0.6,1.2,1.4,2.2,2,2.8c0.6,0.6,0.8,1,0.8,1
				s-0.4-0.2-1.2-0.6c-0.6-0.4-1.6-1.2-2.6-2.4c-0.4-0.6-1-1.2-1.4-2s-0.8-1.6-1-2.4c-0.2-0.4-0.2-1-0.4-1.4c-0.2-0.4-0.2-1-0.2-1.4
				c0-0.4,0-1,0-1.6s0-1,0.2-1.4s0.2-0.8,0.4-1.4c0.2-0.4,0.4-1,0.6-1.4c0.2-0.4,0.4-1,0.8-1.4c0.4-0.4,0.6-0.8,1-1.2
				c0.6-0.8,1.4-1.4,2.2-1.8c0.8-0.4,1.6-0.6,2.4-0.8c1.6-0.2,2.8,0,3.6,0.2C260.5,232.9,261.1,233.1,261.1,233.1z"/>
		</g>
		<g>
			<path fill="#F59EB3" d="M258.9,249c0,0-8.8,1.8-9,9.2c0,7.4,11.6,15.8,23.3,2.4"/>
			<path fill="#EE3524" d="M258.9,249c0,0-0.6,0.2-1.8,0.8c-1,0.4-2.6,1.4-4,2.8c-0.6,0.8-1.2,1.6-1.8,2.6c-0.4,1-0.6,2.2-0.6,3.2
				c0,1.4,0.4,2.2,1,3.4c0.6,1,1.4,2,2.4,2.8s2.2,1.4,3.2,1.8c1.2,0.4,2.4,0.6,3.6,0.4c1.2,0,2.4-0.4,3.4-0.6c0.6-0.2,1-0.4,1.6-0.6
				c0.4-0.2,1-0.6,1.4-0.8c1-0.4,1.6-1,2.4-1.6c0.8-0.4,1.2-1,1.6-1.4c1-0.8,1.4-1.2,1.4-1.2s-0.4,0.6-1.2,1.6
				c-0.4,0.4-0.8,1-1.4,1.6c-0.6,0.6-1.2,1.4-2.2,2c-0.4,0.4-0.8,0.6-1.4,1c-0.6,0.2-1,0.6-1.6,0.8c-1.2,0.4-2.4,1-3.8,1
				c-1.4,0.2-2.8,0-4.4-0.4c-1.4-0.4-2.8-1-4-2s-2.2-2.2-3-3.4c-0.6-1.2-1.2-3-1.2-4.2c0-1.6,0.4-2.8,1-4c0.6-1.2,1.4-2,2.4-2.8
				c1.8-1.4,3.4-2,4.6-2.2C258.1,249,258.9,249,258.9,249z"/>
		</g>
		<g>
			<path fill="#F59EB3" d="M327.6,227.5c0,0,2.4-6,11.4-6.2s13.4,7.6,13.4,7.6"/>
			<path fill="#EE3524" d="M327.6,227.5c0,0,0-0.4,0.4-1.2c0.2-0.4,0.4-0.8,0.8-1.2s0.8-1,1.4-1.4c0.2-0.2,0.6-0.4,0.8-0.8
				c0.4-0.2,0.6-0.4,1-0.6c0.4-0.2,0.8-0.4,1.2-0.6c0.4-0.2,0.8-0.2,1.2-0.4s0.8-0.4,1.4-0.4c0.4,0,1-0.2,1.4-0.2l1.4-0.2
				c0.6,0,1,0,1.4,0c1,0,2,0.2,3,0.4c0.4,0.2,1,0.2,1.4,0.4s0.8,0.4,1.2,0.6c0.8,0.4,1.6,1,2.2,1.4c0.6,0.4,1.2,1,1.8,1.6
				c2,2.2,2.6,4,2.6,4s-1.2-1.4-3.4-3c-0.6-0.4-1.2-0.8-1.8-1.2c-0.6-0.4-1.4-0.8-2.2-1c-0.8-0.4-1.6-0.6-2.4-0.8s-1.6-0.4-2.6-0.4
				c-0.4,0-1,0-1.4,0l-1.2,0.2c-0.4,0-0.8,0-1.2,0s-0.8,0.2-1.2,0.2s-0.8,0.2-1.2,0.2c-0.4,0.2-0.8,0.2-1,0.4
				c-0.4,0.2-0.6,0.2-1,0.4s-0.6,0.4-0.8,0.6c-0.6,0.4-1,0.8-1.4,1c-0.4,0.4-0.8,0.8-1,1C327.8,227.1,327.6,227.5,327.6,227.5z"/>
		</g>
		<g>
			<path fill="#F59EB3" d="M347.9,228.9c0,0,5.6-7.4,13.2-3.8c7.8,3.6,5.6,10,5.6,10"/>
			<path fill="#EE3524" d="M347.9,228.9c0,0,0.2-0.4,0.6-1c0.4-0.6,1.2-1.4,2.2-2.4c0.6-0.4,1.2-0.8,1.8-1.2
				c0.6-0.4,1.4-0.6,2.4-0.8c0.4-0.2,0.8-0.2,1.4-0.2c0.4,0,1,0,1.4,0c1,0,1.8,0.2,2.8,0.6c0.4,0.2,0.8,0.4,1.4,0.6l1.2,0.6
				c0.8,0.4,1.6,1,2.2,1.6s1.2,1.4,1.6,2c0.4,0.8,0.6,1.4,0.8,2.2c0.2,1.4,0,2.6-0.2,3.2c-0.2,0.8-0.4,1.2-0.4,1.2s0-0.4,0-1.2
				s-0.2-1.8-0.6-3c-0.2-0.6-0.6-1.2-1-1.6c-0.4-0.6-0.8-1-1.4-1.6c-0.6-0.4-1.2-0.8-1.8-1.2l-1.2-0.6c-0.2-0.2-0.8-0.2-1-0.4
				c-0.8-0.2-1.4-0.4-2.2-0.6c-0.8,0-1.6,0-2.2,0c-1.4,0.2-2.8,0.8-3.8,1.2C349.1,227.7,347.9,228.9,347.9,228.9z"/>
		</g>
		<g>
			<path fill="#F59EB3" d="M363.9,233.5c0,0,11.6-3.4,10,10.4c-1.6,13.8-20.2,8.8-20.2,8.8"/>
			<path fill="#EE3524" d="M363.9,233.5c0,0,0.6-0.2,1.8-0.6c0.6,0,1.4-0.2,2.2-0.2c0.8,0,1.8,0.2,2.8,0.6c1,0.4,2,1.2,2.6,2.4
				c0.4,0.6,0.6,1.2,0.8,1.8c0.2,0.6,0.4,1.2,0.4,2c0,0.6,0.2,1.4,0.2,2s0,1.4,0,2c-0.2,1.6-0.4,2.6-1,4.2c-0.2,0.8-0.8,1.4-1.2,2
				s-1,1.2-1.6,1.6c-1,1-2.4,1.6-3.6,2c-2.6,0.8-5,0.8-7,0.8c-1,0-2-0.2-2.8-0.4c-0.8-0.2-1.6-0.4-2-0.4c-1.2-0.4-1.8-0.6-1.8-0.6
				s0.6,0,1.8,0.2c0.6,0,1.2,0,2.2,0.2c0.8,0,1.8,0,2.8,0c2-0.2,4.2-0.4,6.4-1.2c1-0.4,2.2-1,3-1.8c0.4-0.4,1-0.8,1.2-1.4
				c0.4-0.4,0.8-1,0.8-1.6c0.6-0.8,0.8-2.6,1-3.6c0-0.6,0-1.2,0.2-1.8c0-0.6,0-1.2,0-1.8c0-0.6-0.2-1.2-0.2-1.6
				c-0.2-0.4-0.4-1-0.6-1.4c-0.4-1-1.2-1.6-2-2.2c-0.8-0.4-1.6-0.8-2.4-0.8c-0.8-0.2-1.4-0.2-2-0.2
				C364.5,233.5,363.9,233.5,363.9,233.5z"/>
		</g>
		<g>
			<path fill="#F59EB3" d="M289.6,260.2c0,0,2.4,9.6,13.6,9.4c11.2-0.4,13.2-9.4,13.2-9.4"/>
			<path fill="#EE3524" d="M289.6,260.2c0,0,0.2,0.6,0.6,1.4c0.2,0.4,0.6,1,1,1.4c0.4,0.6,0.8,1,1.4,1.6s1.2,1.2,2,1.6
				c0.8,0.4,1.6,1,2.4,1.2c0.8,0.4,1.8,0.6,2.8,0.8c0.6,0,1,0.2,1.6,0.2h1.6c1,0,2.2,0,3-0.4c0.4,0,1-0.2,1.4-0.4
				c0.4-0.2,1-0.2,1.4-0.4c0.4-0.2,0.8-0.4,1.2-0.6s0.8-0.4,1.2-0.6c0.8-0.4,1.4-1,2-1.6c1.2-1.2,2-2.2,2.4-3s0.6-1.4,0.6-1.4
				s0,0.6-0.4,1.4c-0.4,1-0.8,2.2-1.8,3.6c-0.6,0.6-1.2,1.4-2,2c-0.4,0.4-0.8,0.6-1.2,1c-0.4,0.4-1,0.6-1.4,0.8
				c-0.4,0.2-1,0.4-1.6,0.6c-0.6,0.2-1,0.4-1.6,0.4c-1.2,0.2-2.2,0.4-3.4,0.4H301c-0.6,0-1.2-0.2-1.8-0.2c-1.2-0.2-2.2-0.6-3.2-1
				c-1-0.4-1.8-1-2.6-1.8c-0.8-0.6-1.4-1.4-1.8-2c-1-1.4-1.4-2.8-1.8-3.6C289.6,260.8,289.6,260.2,289.6,260.2z"/>
		</g>
		<g>
			<path fill="#F59EB3" d="M269.3,259.2c0,0-0.4,11.4,10.4,11.6c10.8,0.4,11.8-11.6,11.8-11.6"/>
			<path fill="#EE3524" d="M269.3,259.2c0,0,0,0.6,0.2,1.6c0.2,1,0.6,2.2,1.4,3.8c0.4,0.8,0.8,1.4,1.4,2.2c0.6,0.6,1.2,1.2,2.2,1.8
				c0.8,0.6,1.8,0.8,2.8,1.2c1,0.2,2,0.4,3,0.4c0.6,0,1.2,0,1.6,0c0.4-0.2,1-0.2,1.4-0.2c0.4-0.2,1-0.4,1.4-0.6
				c0.4-0.2,0.8-0.4,1.2-0.8c0.8-0.6,1.6-1.2,2-1.8c0.4-0.4,0.6-0.6,0.8-1c0.2-0.4,0.4-0.6,0.6-1c0.4-0.6,0.8-1.4,1-2
				c0.2-0.6,0.4-1.2,0.6-1.6c0.4-1,0.4-1.4,0.4-1.4s0,0.6,0,1.6c0,0.4-0.2,1.2-0.2,1.8c-0.2,0.6-0.4,1.4-0.6,2.2
				c-0.4,0.8-0.8,1.6-1.4,2.6c-0.6,0.8-1.4,1.6-2.2,2.4c-1,0.6-2,1.2-3.2,1.6c-0.6,0.2-1.2,0.2-1.8,0.4c-0.6,0-1.2,0-1.8,0.2
				c-1.2,0-2.4-0.2-3.6-0.4c-0.6-0.2-1.2-0.4-1.6-0.6c-0.6-0.2-1-0.6-1.6-0.8c-1-0.6-1.6-1.6-2.4-2.4c-0.6-0.8-1-1.8-1.2-2.6
				c-0.6-1.6-0.6-3.2-0.6-4.2C269.3,259.8,269.3,259.2,269.3,259.2z"/>
		</g>
		<g>
			<path fill="#F59EB3" d="M337.5,255.4c0,0,2.4,4.2,9.4,3.8s11.6-4.4,11.2-9.2"/>
			<path fill="#EE3524" d="M337.5,255.4c0,0,0.2,0.4,0.8,0.8c0.2,0.2,0.6,0.4,1,0.8c0.4,0.2,1,0.4,1.4,0.6c0.6,0.2,1.2,0.4,1.8,0.6
				c0.6,0,1.4,0.2,2,0.2c0.8,0,1.6,0,2.2,0c0.8-0.2,1.6-0.2,2.4-0.4c0.8-0.2,1.4-0.4,2.2-0.6c0.6-0.4,1.4-0.4,2-1
				c0.4-0.2,0.6-0.4,1-0.6c0.2-0.2,0.6-0.4,0.8-0.6c0.6-0.4,1-0.8,1.2-1.4c0.4-0.4,0.6-1,0.8-1.4c0.2-0.2,0.2-0.4,0.2-0.6
				c0-0.2,0-0.4,0.2-0.6c0.2-0.8,0.2-1.2,0.2-1.2s0,0.4,0.2,1.2c0,0.2,0,0.4,0,0.6c0,0.2,0,0.4-0.2,0.8c-0.2,0.6-0.2,1.2-0.6,1.8
				c-0.2,0.4-0.4,0.6-0.4,1c-0.2,0.4-0.4,0.6-0.6,0.8c-0.2,0.2-0.6,0.6-0.8,0.8c-0.4,0.2-0.6,0.4-1,0.8c-0.6,0.6-1.4,0.8-2.2,1.2
				c-0.8,0.4-1.8,0.6-2.6,0.8c-0.8,0.2-1.6,0.2-2.4,0.2c-1,0-1.8,0-2.6-0.2c-0.8,0-1.6-0.4-2.4-0.6c-0.8-0.2-1.4-0.6-2-1
				s-1-0.6-1.4-1.2c-0.4-0.4-0.6-0.8-0.8-1C337.7,255.8,337.5,255.4,337.5,255.4z"/>
		</g>
		<g>
			<path fill="#F59EB3" d="M309.8,258.4c0,0,4,11.8,17.8,11.2c13.8-0.6,14.2-15.8,14.2-15.8"/>
			<path fill="#EE3524" d="M309.8,258.4c0,0,0.4,0.6,1,1.8c0.6,1,1.8,2.4,3.4,3.8c0.8,0.6,1.6,1.4,2.6,2c0.6,0.4,1,0.6,1.6,0.8
				c0.6,0.2,1.2,0.6,1.8,0.8c0.6,0.2,1.2,0.4,1.8,0.6c0.6,0.2,1.2,0.2,2,0.4c0.6,0,1.4,0.2,2,0.2h1c0.2,0,0.4,0,0.4,0h0.6
				c0.8,0,1.4-0.2,2.2-0.2c0.6-0.2,1.2-0.2,1.8-0.6c0.6-0.2,1.2-0.4,1.8-0.8c0.6-0.4,1.2-0.6,1.6-1c1-0.8,1.8-1.6,2.6-2.6
				c0.4-0.4,0.6-1,1-1.4s0.6-1,0.8-1.4c0.4-1,0.8-1.8,1.2-2.6c0.2-0.8,0.4-1.6,0.6-2.2c0.4-1.2,0.4-2,0.4-2s0,0.8,0,2
				c0,0.6-0.2,1.4-0.4,2.2c-0.2,0.8-0.4,1.8-0.8,3c-0.2,0.6-0.4,1-0.6,1.6s-0.6,1-1,1.6c-0.6,1.2-1.6,2.2-2.6,3.2
				c-0.6,0.6-1.2,0.8-1.8,1.2c-0.6,0.4-1.4,0.6-2,1c-0.8,0.2-1.4,0.4-2.2,0.6c-0.8,0.2-1.4,0.2-2.2,0.2h-0.6c-0.4,0-0.4,0-0.6,0H326
				c-0.8,0-1.4,0-2.2-0.2c-0.8,0-1.4-0.2-2.2-0.4c-0.8-0.2-1.4-0.4-2-0.6s-1.2-0.6-1.8-1s-1.2-0.8-1.6-1c-1-0.8-2-1.6-2.6-2.4
				c-0.8-0.8-1.4-1.6-1.8-2.4c-0.4-0.8-0.8-1.4-1-2C309.8,259,309.8,258.4,309.8,258.4z"/>
		</g>
	</g>
</g>
<path fill="#941C1C" stroke="#000000" stroke-miterlimit="10" d="M331.9,231.5c-9.4-11.8-9.8-36.3-8.8-48.3
	c1-11.8,29.3-33.7,29.3-33.7l-17.8-10.2c-36.1,14-54.5,31.7-62.5,49.5c-3.4,7.8-5,15.6-5,23.5c-0.2,10,2.2,19.8,5.4,28.5l24.7,9
	l27.5-2.6l14.4-11L331.9,231.5z"/>
<g id="head">
	<g>
		<path fill="#F59EB3" d="M404,22.3c0,0,13.4,142.3,2.6,146.5s-30.7,1.4-30.7,1.4l-11.2-4.4l-10.2-16.2l-9.6-11.6l-13.4-22.9
			L328,91.8l6-30.3l8.6-12.2l10.4-11l4.4-8.4L404,22.3z"/>
		<g>
			<g>
				<path fill="#F59EB3" d="M357.7,31.3c-3.4-6.8-10.4-4.4-10.4-4.4c-11,7,1.8,19.6,1.8,19.6"/>
				<path fill="#EE3524" d="M357.7,31.3l-0.6-0.6c-0.2-0.2-0.4-0.4-0.6-0.6c-0.4-0.4-0.8-0.6-1.2-0.8c-0.2-0.2-0.4-0.2-0.6-0.4
					c-0.2,0-0.4-0.2-0.6-0.4c-0.4-0.2-0.8-0.4-1.2-0.6c-0.8-0.4-1.8-0.6-2.6-0.6c-0.4,0-1,0-1.4,0c-0.4,0-1,0.2-1.4,0.2l0.2-0.2
					l-1,0.8c-0.4,0.2-0.8,0.6-1,0.8c-0.2,0.4-0.6,0.6-0.8,1l-0.6,1c-0.2,0.4-0.2,0.8-0.4,1.2c-0.2,0.4-0.2,0.8-0.2,1.2
					c0,0.4,0,0.8,0,1.2c0,0.4,0,0.8,0.2,1.2c0.2,0.4,0.2,0.8,0.4,1.2c0.2,0.4,0.4,0.8,0.6,1.2c0.4,0.8,0.8,1.6,1.4,2.4
					c0.2,0.4,0.6,0.8,0.8,1.2c0.2,0.4,0.4,0.8,0.6,1.4c0.4,0.8,0.8,1.8,1.4,2.6c-0.8-0.4-1.6-1.2-2.4-1.8c-0.4-0.4-0.8-0.6-1.2-1
					c-0.4-0.4-0.6-0.8-0.8-1.2c-0.6-0.8-1-1.8-1.4-2.6c-0.2-0.4-0.4-1-0.6-1.4c-0.2-0.4-0.2-1-0.4-1.4c-0.2-0.4-0.2-1-0.2-1.6
					c0-0.6-0.2-1,0-1.6c0-0.6,0-1,0.2-1.6c0.2-0.6,0.2-1,0.4-1.6l0.8-1.4c0.4-0.4,0.6-0.8,1-1.2c0.4-0.4,0.8-0.8,1.2-1l1.2-1l0,0
					h0.2c0.6-0.2,1.2-0.2,1.8-0.4c0.6,0,1.2,0,1.6,0c1.2,0,2.2,0.2,3.4,0.8c0.6,0.2,1,0.6,1.6,0.8c0.4,0.4,0.8,0.8,1.2,1.4
					c0.4,0.4,0.6,1,0.8,1.4C357.3,30.3,357.5,30.9,357.7,31.3z"/>
			</g>
			<g>
				<path fill="#F59EB3" d="M406.6,28.1c0,0-2.8-26.3-23.3-27.1c-20.4-0.8-28.9,25.3-24.5,37.3"/>
				<path fill="#EE3524" d="M406.6,28.1c0,0-0.4-1.4-1-3.8c-0.4-1.2-0.8-2.6-1.6-4.2c-0.6-1.6-1.4-3.2-2.4-5.2c-1-1.8-2-3.8-3.6-5.6
					c-1.4-1.8-3.4-3.4-5.4-4.8c-2.2-1.2-4.6-2.2-7.2-2.4l-2-0.2c-0.6,0-1.4,0-2,0s-1.4,0-2,0.2l-2,0.4c-0.4,0-0.6,0.2-1,0.2l-1,0.4
					l-1.8,1c-0.6,0.4-1.2,0.6-1.8,1c-0.6,0.4-1.2,0.6-1.6,1.2c-1,0.8-2,1.6-3,2.6c-0.4,0.4-1,1-1.4,1.4c-0.4,0.6-0.8,1-1.2,1.6
					c-0.8,1-1.4,2.2-2,3.2s-1,2.2-1.6,3.2c-0.4,1.2-0.8,2.2-1.2,3.2c-0.2,1-0.6,2.2-0.8,3.2c-0.4,2-0.6,3.8-1,5.6
					c-0.2,1.6-0.2,3.2-0.2,4.4c0,1.2,0.2,2.2,0.2,2.8c0.2,0.6,0.2,1,0.2,1s-0.2-0.4-0.4-1c-0.2-0.6-0.6-1.6-0.8-2.8
					c-0.4-1.2-0.4-2.8-0.6-4.6c0-0.8,0-1.8,0-2.8s0.4-2,0.4-3c0.2-1,0.6-2.2,0.8-3.2c0.4-1.2,0.8-2.2,1.2-3.4c0.6-1.2,1-2.4,1.6-3.4
					c0.6-1.2,1.2-2.4,2.2-3.4c0.4-0.6,0.8-1.2,1.2-1.6c0.4-0.6,1-1,1.4-1.6c1-1,2-2,3.2-2.8c0.6-0.4,1.2-0.8,1.8-1.2s1.2-0.8,2-1
					l2-0.8l1-0.4c0.4,0,0.8-0.2,1.2-0.2l2.2-0.4c0.8-0.2,1.4,0,2.2-0.2c0.8,0,1.4,0,2.2,0l2.2,0.2c2.8,0.2,5.6,1.4,8,2.8
					c2.4,1.6,4.4,3.2,6,5.2c1.6,2,2.8,4,3.8,6c0.4,1,1,2,1.2,2.8c0.2,1,0.6,1.8,0.8,2.8c0.4,1.8,0.6,3.2,0.8,4.4
					C406.6,26.7,406.6,28.1,406.6,28.1z"/>
			</g>
			<g>
				<path fill="#F59EB3" d="M334.1,82.4c0,0-12-0.2-12.2,8.2c-0.2,8.4,5.6,12.6,8.4,13.2"/>
				<path fill="#EE3524" d="M334.1,82.4c0,0-0.6,0.2-1.4,0.4c-0.4,0.2-1,0.4-1.6,0.6c-0.2,0.2-0.6,0.2-1,0.4s-0.6,0.2-1,0.2
					c-0.8,0.2-1.4,0.4-2.2,0.8s-1.4,0.8-2.2,1.4c-0.6,0.6-1.2,1.2-1.6,2c-0.2,0.4-0.4,0.8-0.4,1.2c0,0.4-0.2,1-0.2,1.2
					c0,1,0,2.2,0.2,3c0.2,0.8,0.4,1.8,0.8,2.6c0.2,0.4,0.4,0.8,0.6,1.2c0.2,0.4,0.4,0.8,0.6,1c0.4,0.8,1,1.2,1.4,1.8
					c0.2,0.4,0.6,0.4,0.8,0.6c0.2,0.2,0.4,0.6,0.6,0.8c0.4,0.4,0.8,0.8,1.2,1c0.8,0.4,1.2,0.8,1.2,0.8s-0.2,0-0.4,0
					c-0.2,0-0.6,0-1.2,0c-0.4-0.2-1-0.2-1.6-0.6c-0.6-0.2-1.4-0.6-2-1.2s-1.2-1.2-1.8-2c-0.2-0.4-0.6-0.8-0.8-1.2
					c-0.2-0.4-0.4-1-0.6-1.4c-0.6-1-0.6-2-1-3.2c-0.2-1-0.2-2-0.2-3.2s0.2-2.4,0.6-3.4c0.6-1,1.2-2,2-2.8c0.8-0.8,1.8-1.2,2.6-1.6
					c0.8-0.4,1.8-0.6,2.6-1c0.4,0,0.8-0.2,1.2-0.2s0.8,0,1,0c0.6,0,1.2,0.2,1.8,0.2C333.7,82.2,334.1,82.4,334.1,82.4z"/>
			</g>
			<g>
				<path fill="#F59EB3" d="M350.1,47.3c0,0-12-15.2-27.1-1s7.2,41.1,14.4,40.5"/>
				<path fill="#EE3524" d="M350.1,47.3c0,0-1-1-2.8-2.2c-0.8-0.6-2-1.4-3.4-2c-1.4-0.6-3-1.2-4.6-1.6c-1.8-0.4-3.6-0.4-5.6-0.2
					c-2,0.4-4,1.2-6,2.4c-0.4,0.4-1,0.6-1.4,1l-1.2,1.4c-0.4,0.4-1,0.8-1.4,1.2c-0.4,0.4-0.8,0.8-1.2,1.4c-1.4,1.8-2.6,4-3,6.2
					c-1,4.6,0.2,9.6,2,13.8c1.8,4.2,4.4,7.8,6.8,10.6c0.6,0.8,1.2,1.2,1.8,2c0.6,0.6,1,1.2,1.6,1.8c1,1,2,2,3,2.6
					c0.8,0.6,1.6,1,2.2,1.2s0.8,0.2,0.8,0.2s-0.4,0-1,0s-1.4-0.2-2.6-0.6c-1-0.4-2.2-1.2-3.6-2c-0.6-0.4-1.4-1-2-1.6s-1.2-1.4-2-2
					c-2.6-3-5.2-6.6-7.2-11.2c-1-2.2-1.8-4.6-2.2-7.2c-0.4-2.6-0.4-5.2,0.2-7.8c0.6-2.6,1.8-5,3.6-7.2c0.4-0.4,0.8-1,1.2-1.4
					c0.6-0.6,1-0.8,1.4-1.2l1.4-1.2c0.6-0.4,1-0.6,1.6-1c2-1.4,4.4-2.2,6.6-2.8c2.2-0.4,4.6-0.4,6.4,0.2c1,0.2,2,0.6,2.8,0.8
					c0.8,0.4,1.6,0.8,2.2,1.4c1.4,1,2.4,1.8,3.2,2.6C349.5,46.3,350.1,47.3,350.1,47.3z"/>
			</g>
			<g>
				<path fill="#F59EB3" d="M359.7,149.5c0,0-6.2,19.2,5.6,25.9c11.8,6.4,17.8-5.2,17.8-5.2"/>
				<path fill="#EE3524" d="M359.7,149.5c0,0,0,0.8-0.2,2.2c0,0.6,0,1.4,0,2.4c0,0.4,0,1,0,1.4c0,0.6-0.2,1-0.2,1.6
					c-0.2,1.2-0.2,2.4-0.2,3.6c0,1.2,0.2,2.6,0.4,4c0.2,1.4,0.6,2.8,1.2,4c0.4,0.6,0.6,1.2,1,1.8s0.8,1.2,1.4,1.6
					c0.4,0.6,1,1,1.6,1.4s1,0.8,1.8,1.2c1.2,0.6,2.6,1,4,1.4c2.6,0.4,5.2-0.2,7-1.4c0.4-0.2,0.8-0.6,1.2-0.8
					c0.4-0.2,0.8-0.4,1.2-0.8c0.8-0.6,1.4-1,1.8-1.4c1-1,1.4-1.6,1.4-1.6s0,0.2-0.2,0.6c-0.2,0.4-0.4,0.8-0.6,1.4
					c-0.4,0.6-0.8,1.4-1.4,2.2c-0.4,0.4-0.6,0.8-1,1.2c-0.4,0.4-1,0.6-1.4,1c-2.2,1.4-5.2,2.2-8.2,1.6c-1.6-0.2-3-0.8-4.4-1.6
					c-0.6-0.2-1.4-0.8-2-1.2c-0.8-0.4-1.4-1-1.8-1.6c-0.6-0.6-1-1.2-1.6-2c-0.6-0.6-0.8-1.4-1.2-2.2c-0.6-1.4-1.2-3-1.4-4.4
					c-0.2-1.4-0.4-3-0.4-4.2c0-1.4,0-2.6,0.2-3.8c0-0.6,0-1.2,0.2-1.6c0.2-0.6,0.4-1,0.4-1.4c0.2-1,0.6-1.8,0.8-2.4
					C359.3,150.3,359.7,149.5,359.7,149.5z"/>
			</g>
			<g>
				<path fill="#F59EB3" d="M339.1,124.7c0,0-10,15,0,25.7c10,10.4,21.4,4.4,25.7-1.2"/>
				<path fill="#EE3524" d="M339.1,124.7c0,0-0.4,0.8-0.8,2.4c-0.2,0.8-0.6,1.6-0.8,2.6c-0.2,0.6-0.2,1-0.4,1.6
					c-0.2,0.6-0.4,1.2-0.6,1.8c-0.4,1.2-0.6,2.6-0.8,4c0,0.8,0,1.4,0,2.2s0.2,1.6,0.2,2.4c0.4,1.6,0.8,3,1.6,4.6
					c0.4,0.8,0.8,1.4,1.4,2l0.8,1c0.2,0.2,0.6,0.6,0.8,0.8c0.6,0.6,1.2,1.2,2,1.6l1,0.8l1,0.6c1.4,0.8,3,1.4,4.6,1.6
					c1.6,0.2,3,0.2,4.4,0s2.8-0.6,3.8-1.2c0.6-0.2,1-0.6,1.6-0.8c0.6-0.2,1-0.4,1.6-0.8c1-0.4,1.8-1,2.4-1.4s1-0.8,1.4-1.2
					c0.4-0.2,0.4-0.4,0.4-0.4s-0.2,0.2-0.4,0.6c-0.2,0.4-0.6,1-1,1.6s-1.2,1.4-2,2.2c-0.8,0.8-1.8,1.6-3.2,2.2
					c-1.2,0.6-2.8,1-4.4,1.4c-1.6,0.2-3.4,0.4-5.2,0c-1.8-0.4-3.6-0.8-5.2-1.8l-1-0.8l-1.2-0.8c-0.8-0.6-1.4-1.2-2-1.8
					c-0.4-0.4-0.6-0.6-1-1l-0.8-1c-0.6-0.6-1-1.6-1.6-2.4c-1-1.6-1.4-3.4-1.8-5.2c0-0.8-0.2-1.8-0.2-2.6s0-1.6,0-2.4
					c0.2-1.6,0.4-3,0.8-4.4c0.2-1.4,0.8-2.6,1.4-3.4c0.6-1,1-1.8,1.6-2.4C338.5,125.5,339.1,124.7,339.1,124.7z"/>
			</g>
			<g>
				<path fill="#F59EB3" d="M329.4,100.4c0,0-10.4,3-9.6,14.2s14.4,16.2,24.1,12.8"/>
				<path fill="#EE3524" d="M329.4,100.4c0,0-0.8,0.4-1.8,1.2c-0.6,0.4-1.2,1-1.8,1.6c-0.4,0.4-0.6,0.6-1,1s-0.8,0.6-1,1.2
					c-0.8,0.8-1.4,1.8-1.8,2.8c-0.4,1.2-0.8,2.4-1,3.8c-0.2,0.6,0,1.4,0,2v0.6v0.4l0.2,1.2c0.2,0.8,0.4,1.4,0.6,2
					c0.4,0.6,0.6,1.4,1,2c0.4,0.6,0.8,1.2,1.2,1.8l0.8,0.8l0.8,0.8c1,1,2.4,1.6,3.6,2.4c0.6,0.2,1.2,0.6,1.8,0.8
					c0.6,0.2,1.2,0.4,1.8,0.6c0.6,0.2,1.2,0.2,1.8,0.4c0.6,0,1.2,0.2,1.8,0.2c1.2,0,2.2,0.2,3,0.2c1,0.2,1.8,0,2.4,0
					c1.4-0.2,2.2-0.2,2.2-0.2s-0.2,0-0.6,0.2s-0.8,0.4-1.4,0.8c-0.6,0.2-1.4,0.6-2.4,0.8c-0.4,0.2-1,0.2-1.6,0.4c-0.6,0-1.2,0-1.8,0
					s-1.2-0.2-1.8-0.2c-0.6-0.2-1.4-0.2-2-0.4s-1.4-0.4-2-0.6c-0.6-0.2-1.4-0.6-2-0.8c-1.4-0.8-2.8-1.6-4-2.6l-1-0.8l-0.8-1
					c-0.6-0.6-1-1.4-1.4-2c-0.4-0.8-0.8-1.4-1.2-2.2c-0.2-0.8-0.6-1.6-0.6-2.4l-0.2-1.2c0-0.2,0-0.2,0-0.6v-0.6c0-0.8,0-1.6,0-2.4
					c0-1.6,0.6-3,1-4.4c0.6-1.2,1.4-2.4,2.2-3.4c0.4-0.4,0.8-1,1.2-1.2c0.4-0.4,1-0.6,1.4-0.8c0.8-0.4,1.6-0.8,2.4-1
					C328.6,100.4,329.4,100.4,329.4,100.4z"/>
			</g>
			<g>
				<path fill="#F59EB3" d="M382.2,167.4c0,0-2,13.6,14,13.2s12.6-14.4,12.4-14.8"/>
				<path fill="#EE3524" d="M382.2,167.4c0,0,0,0.8,0.4,2c0.2,0.6,0.4,1.4,0.6,2c0.4,0.8,0.8,1.6,1,2.4c0.4,0.8,1,1.8,1.8,2.6
					c0.2,0.2,0.4,0.4,0.6,0.6l0.6,0.4c0.4,0.4,1,0.6,1.6,0.8c0.6,0.4,1.2,0.4,1.8,0.6c0.6,0.2,1.2,0.4,1.8,0.4
					c0.6,0.2,1.4,0.2,2,0.2s1.4,0,2,0l2.2-0.2c0.8,0,1.2-0.2,2-0.4c0.6,0,1.2-0.4,1.8-0.6c0.6-0.2,1.2-0.6,1.6-0.8
					c1-0.6,1.8-1.4,2.4-2.4c0.6-1,1-1.8,1.2-2.8c0.2-0.4,0.2-1,0.4-1.4c0.2-0.4,0.2-0.8,0.4-1.2c0.2-0.8,0.2-1.6,0.4-2.2
					c0-0.6,0-1.2,0-1.4c0-0.4,0-0.6,0-0.6s0.4,0.6,0.8,1.8c0.2,0.6,0.4,1.4,0.4,2.2c0.2,1,0.2,2-0.2,3c-0.2,1.2-0.8,2.2-1.6,3.4
					c-0.8,1-1.8,2.2-3,2.8c-0.6,0.4-1.2,0.8-2,1c-0.6,0.2-1.4,0.6-2.2,0.6c-0.8,0.2-1.6,0.4-2.2,0.4l-2.2,0.2c-0.8,0-1.4,0-2.2,0
					c-0.8,0-1.4,0-2.2-0.2c-0.8-0.2-1.4-0.2-2.2-0.4c-0.6-0.2-1.4-0.4-2-0.8s-1.2-0.6-1.8-1l-0.8-0.6c-0.2-0.2-0.4-0.4-0.8-0.8
					c-1-1-1.6-2-2.2-3c-0.2-0.6-0.4-1-0.6-1.6c0-0.6-0.2-1-0.2-1.4c0-1,0-1.8,0.2-2.4C381.8,168,382.2,167.4,382.2,167.4z"/>
			</g>
		</g>
	</g>
	<path fill="#E46B1F" stroke="#000000" stroke-miterlimit="10" d="M389.2,98.2l45.1,40.5l-2.4-13l29.5,35.9c0,0,3.2,2.8,4-3.2
		c1.6-10.6-4.2-79.4-26.1-105c-19.6-23.1-24.5-24.5-46.3-23.3c-16.4,0.8-29.7,45.9-24.7,56.5c5,10.6,15,86,62.5,125.7
		c0,0,10.8-7.2,14.2-7.4c0,0-5-22.3-5.6-27.9C439.5,177.2,401,177.4,389.2,98.2z"/>
	<g>
		<g>
			<path fill="#DBE13C" d="M425.9,119.5L396,90.4c0,0,2.4-20.8,12.2-15C418.1,81.2,425.7,106.4,425.9,119.5z"/>
			<path d="M426.9,121.9L395,90.8v-0.4c0-0.6,2.2-16.8,10-16.8c1.2,0,2.4,0.4,3.8,1.2c9.8,5.8,17.8,31.3,18,44.9V121.9z M397.2,90
				l27.7,26.9c-1-13.6-8.4-35.7-16.8-40.7c-1-0.6-1.8-0.8-2.8-0.8C400.2,75.4,397.8,85.6,397.2,90z"/>
		</g>
		<path d="M413.2,107.8c0,0,3.8-18.8-6.4-21c0,0-5-0.8-4.2,9.8L413.2,107.8z"/>
		<g>
			<line fill="none" x1="401.2" y1="76.4" x2="396" y2="69.4"/>
			<polygon points="400.4,77 396,69.4 402,75.8 			"/>
		</g>
		<g>
			<line fill="none" x1="397.6" y1="83" x2="391" y2="76.4"/>
			<polygon points="397,83.8 391,76.4 398.4,82.4 			"/>
		</g>
		<g>
			<line fill="none" x1="396" y1="90.4" x2="388.4" y2="83"/>
			<polygon points="395.4,91.2 388.4,83 396.8,89.8 			"/>
		</g>
	</g>
	<g>
		<g>
			<path fill="#DBE13C" d="M446.3,79.2c-4,3.8-5.2,25.7-2.6,38.5l14.2-22.3C457.9,95.4,454.5,71.4,446.3,79.2z"/>
			<path d="M443.1,120.3l-0.4-2.4c-2.6-12.6-1.4-35.3,3-39.3c1.2-1.2,2.6-1.8,3.8-1.8c6.6,0,9.2,16.6,9.4,18.6v0.4L443.1,120.3z
				 M449.5,78.6c-0.8,0-1.6,0.4-2.4,1.2c-3.4,3.2-4.8,22.1-2.8,34.9L456.9,95C455.9,88.6,453.1,78.6,449.5,78.6z"/>
		</g>
		<path d="M443.9,116.3c0,0-4.2-17.8,3-22.3c1.6-1,10.8,0.2,5.6,10.2L443.9,116.3z"/>
		<g>
			<line fill="none" x1="453.1" y1="80.2" x2="456.5" y2="72.4"/>
			<polygon points="452.1,79.8 456.5,72.4 453.9,80.6 			"/>
		</g>
		<g>
			<line fill="none" x1="455.9" y1="86.6" x2="460.9" y2="78.6"/>
			<polygon points="455.1,86 460.9,78.6 456.7,87.2 			"/>
		</g>
		<g>
			<line fill="none" x1="457.9" y1="95.2" x2="464" y2="86.4"/>
			<polygon points="457.1,94.6 464,86.4 458.7,95.8 			"/>
		</g>
	</g>
	<g>
		<path d="M440.7,178.4l-1.4-0.2c-43.3-9.2-50.9-79.2-51.1-80l-0.2-2.6l47.3,42.7L440.7,178.4z"/>
		<g>
			<path fill="#FCDEDE" d="M426.9,169.2c3,1.8,6.4,3,9.8,3.8l-4.2-29.5l-5-4.6L426.9,169.2z"/>
			<path fill="#FCDEDE" d="M395.8,121.1c1.8,6.2,4.4,13.6,8,21l7.8-18l-10-9.2L395.8,121.1z"/>
			<path fill="#FCDEDE" d="M400.2,113.5l-8.2-7.6c0,0,0.8,5.2,3,12.8L400.2,113.5z"/>
			<path fill="#FCDEDE" d="M425.5,136.9l-12.2-11.2l-8.2,18.8c4.8,9.2,11.2,18,19.8,23.5L425.5,136.9z"/>
		</g>
	</g>
	
		<ellipse transform="matrix(-0.1464 -0.9892 0.9892 -0.1464 348.9943 497.5945)" fill="#F59EB3" cx="389.2" cy="98.2" rx="9.8" ry="6.8"/>
	<g>
		<path fill="#E46B1F" d="M383.4,111.9c0,0-14.4-28.5-44.3-42.5c0,0,16,18.8,15.6,52.9c0,0,0,16.4,13.6,15.6c13.8-0.8,15-8,15-8"/>
		<path d="M383.4,111.9c-1.4-2.2-2.8-4.4-4.4-6.4s-3.2-4.2-4.8-6c-1.6-2-3.4-3.8-5-5.8c-1.8-2-3.4-3.8-5.4-5.6
			c-3.6-3.6-7.6-6.8-11.8-9.8c-4.2-3-8.6-5.6-13.2-7.8l1.2-1.6c1.4,1.6,2.4,3.4,3.6,5.2c1,1.8,2,3.6,3,5.4c0.8,1.8,1.8,3.8,2.6,5.6
			c0.8,1.8,1.4,3.8,2.2,5.8c0.6,2,1.2,4,1.6,6c0.2,1,0.6,2,0.8,3l0.6,3c0.4,2,0.6,4,1,6s0.4,4,0.6,6.2c0.2,2,0,4.2,0.2,6.2
			c0,2,0.2,3.8,0.6,5.8c0.4,1.8,1.2,3.8,2.2,5.2c1,1.6,2.4,2.8,4.2,3.6c1.6,0.8,3.6,1.2,5.4,1.2c2,0,4-0.2,6-0.6
			c2-0.4,3.8-1,5.6-2.2c1.6-1,3.2-2.6,3.8-4.4c-0.4,2-1.8,3.8-3.4,5c-1.6,1.2-3.6,2.2-5.6,2.8c-2,0.6-4,1-6.2,1.2s-4.4,0-6.4-1
			c-2-1-3.8-2.6-5-4.4c-1.2-1.8-2-3.8-2.4-6c-0.4-2-0.8-4.2-0.6-6.2c0-2,0-4-0.2-6c-0.2-2-0.2-4-0.6-6c-0.2-2-0.4-4-0.8-6l-1.4-3
			c-0.2-1-0.4-2-0.8-3c-0.4-2-1-3.8-1.6-5.8c-0.6-1.8-1.2-3.8-2-5.6c-0.8-1.8-1.6-3.6-2.4-5.6c-1-1.8-1.8-3.6-2.8-5.2
			s-2.2-3.4-3.4-4.8l-2.8-3.4l3.8,1.8c4.8,2.2,9.4,4.8,13.6,7.8c4.2,3,8.2,6.4,12,10c1.8,1.8,3.6,3.8,5.4,5.6c0.8,1,1.8,2,2.6,3
			c0.8,1,1.6,2.2,2.2,3.2C378.4,102.6,381.2,107,383.4,111.9z"/>
	</g>
	<path fill="#751010" d="M356.9,86c0,0-0.4,0.2-0.8,0.6c-0.4,0.6-0.6,1.4-0.4,2.6c0.2,1.2,0.6,2.6,1.4,4c0.4,0.8,0.8,1.6,1.4,2.2
		c0.6,0.8,1.2,1.6,1.8,2.4c1.4,1.6,3,3.2,4.8,4.8c1.8,1.6,3.6,3.2,5.6,5c2,1.8,4.2,3.6,5.6,6.4c0.4,0.6,0.8,1.4,1,2.2
		c0.2,0.8,0.4,1.4,0.6,2.2c0.2,1.4,0.4,3,0.2,4.6c-0.4,3.2-3.2,6-6,7.2c-2.8,1.2-6,1.4-8.8,0.2c-0.8-0.2-1.4-0.8-2-1.2
		c-0.2-0.2-0.6-0.4-0.8-0.8c-0.2-0.2-0.4-0.6-0.6-0.8c-0.8-1.2-1.4-2.6-1.6-4c-0.2-1.4,0.2-2.8,1-4c0.8-1,1.8-1.8,3-2.2
		c2.2-1,4.6-0.6,6,0.8c1.2,1.4,1.8,3,1.6,4.4c-0.2,1.4-1,2.2-1.6,2.4c-0.6,0.2-1,0.2-1,0.2s0.4,0,1-0.4c0.6-0.2,1.2-1,1.2-2.2
		s-0.6-2.6-1.8-3.6c-1.2-1-3.2-1-4.8-0.2c-0.8,0.4-1.6,1-2,1.8s-0.6,1.8-0.4,2.6c0.4,2,2,4,3.8,4.8c2,0.8,4.6,0.6,6.8-0.4
		c0.6-0.2,1-0.4,1.6-1c0.4-0.4,1-0.8,1.2-1.2c0.8-0.8,1.2-2,1.4-3c0.2-1.2,0.2-2.4,0-3.6c-0.2-0.6-0.2-1.2-0.4-1.8
		c-0.2-0.6-0.4-1.2-0.8-1.6c-1.2-2.2-3-4-5-5.8s-3.8-3.6-5.4-5.4s-3.2-3.4-4.4-5.2c-0.6-0.8-1.2-1.8-1.8-2.6s-1-1.8-1.2-2.6
		c-0.6-1.6-1-3.2-1-4.4c0-1.2,0.4-2.2,0.8-2.8C356.7,86,356.9,86,356.9,86z"/>
	<path d="M385,70.8c0,0-0.2-1.2,0-3.2c0-1,0.2-2.2,0.6-3.6c0.4-1.4,0.8-3,1.4-4.6c0.8-1.6,1.6-3.6,3.2-5.2c1.4-1.8,3.6-3.6,6.6-4
		c3-0.6,6,0.4,8.2,1.8c2.2,1.4,4.2,3,5.6,4.8c1.6,1.8,3,3.6,4.4,5.4c1.4,1.8,2.4,3.8,3.6,5.6c1,1.8,2,3.6,3,5.4
		c0.8,1.8,1.6,3.4,2.4,5c1.4,3,2.6,5.6,3.2,7.6c0.8,1.8,1.2,2.8,1.2,2.8l-0.6,0.2c0,0-0.6-1-1.6-2.6c-0.4-0.8-1-1.8-1.8-3
		c-0.8-1.2-1.6-2.4-2.4-4c-0.8-1.4-1.8-3-3-4.6c-1-1.6-2.2-3.2-3.4-5c-1.2-1.6-2.4-3.4-3.8-5c-1.4-1.6-2.8-3.2-4.4-4.6
		c-1.6-1.4-3.2-2.6-4.8-3.2c-1.6-0.6-3.2-0.8-4.4-0.6c-1.2,0.2-2.4,1-3.6,2s-2.2,2.4-3.2,3.6c-1.8,2.6-3.2,5-4.2,6.6
		c-1,1.8-1.6,2.8-1.6,2.8L385,70.8z"/>
	<path d="M446.5,64.3c0,0,0,0-0.2,0.4c-0.2,0.4-0.6,0.6-0.8,1c-0.2,0.4-0.6,0.8-0.8,1.4c-0.4,0.4-0.6,1-0.8,1.6
		c-0.2,0.6-0.6,1.2-0.8,1.8c-0.2,0.6-0.4,1.4-0.8,2c-0.2,0.6-0.4,1.4-0.6,2c-0.2,0.6-0.4,1.4-0.6,2c-0.4,1.4-0.6,2.6-0.8,3.6
		c-0.4,2.2-0.6,3.6-0.6,3.6s-0.2-1.4-0.4-3.6c-0.2-1.2-0.2-2.4-0.2-3.8c0-1.4,0-2.8,0-4.4c0-0.8,0.2-1.6,0.2-2.2
		c0-0.8,0.2-1.4,0.4-2.2c0.2-0.8,0.2-1.4,0.4-2c0.2-0.6,0.4-1.2,0.6-1.8s0.4-1.2,0.6-1.6c0.2-0.4,0.4-0.8,0.6-1.2
		c0.2-0.4,0.4-0.6,0.4-0.8s0.8-1.2,0.8-1.2L446.5,64.3z"/>
	<path d="M440.5,53.1c0,0-6.6,13.2-5,35.3c0,0-16-49.9-43.3-42.1c-27.3,7.6-10.4,61.1-9.8,63.9c0.6,2.8-9.6-16-15.2-20.4
		c0,0-12.8-46.7,19.6-61.1S440.5,53.1,440.5,53.1z"/>
	<path stroke="#000000" stroke-miterlimit="10" d="M456.3,208.1c0.6,6.8,5,6.2,5,6.2s-2.4-1.4-2.6-6.2c-0.4-4.8,9.4-8.4,9.8,3
		s-9.2,10.2-9.2,10.2s-8.8-1.6-14.2-16.4c0,0-5.8,1-9.8-9.4c0,0,2.2,17.2-4.4,16.8c0,0,10.4,11.8,29.1,11.8c0,0,10.2,0.8,10.6-13.2
		C471,196.9,455.5,199.9,456.3,208.1z"/>
</g>
<g id="skirt_front">
	<path fill="#F59EB3" d="M261.1,243.2c0,0,62.9,31.3,86.8-2.2c0,0-12.2-6.4-20.2-5.6c-8,0.8-17.8,10-20.8,4c0,0-3.8,6.4-21-2.4
		c-17-8.8-18.6-1.8-18.6-1.8L261.1,243.2z"/>
	<g>
		<path fill="#F59EB3" d="M311.6,241c0,0,15.8-19.2,31.9-3.2"/>
		<path fill="#EE3524" d="M311.6,241c0,0,0.2-0.6,0.8-1.4c0.2-0.4,0.6-1,1-1.6c0.2-0.2,0.4-0.6,0.8-1c0.2-0.4,0.6-0.6,1-0.8
			c0.8-0.6,1.4-1.2,2.4-1.6c0.8-0.6,1.8-1.2,2.8-1.6c1-0.6,2-1,3.2-1.4c1.2-0.4,2.2-0.8,3.4-0.8l1.8-0.2c0.6,0,1.2,0,1.8,0
			c1.2,0,2.4,0.2,3.4,0.4c1.2,0.2,2.2,0.8,3,1c1,0.4,1.8,1,2.6,1.4c0.8,0.4,1.4,1,1.8,1.6c0.4,0.6,0.8,1,1.2,1.4
			c0.6,0.8,1,1.4,1,1.4s-0.6-0.2-1.4-0.8c-0.4-0.2-1-0.6-1.6-0.8c-0.2-0.2-0.6-0.4-1-0.4c-0.4-0.2-0.6-0.4-1-0.6
			c-0.6-0.4-1.4-1-2.4-1.2c-0.8-0.4-1.8-0.8-2.8-1s-2-0.4-3-0.4c-0.6,0-1,0-1.6,0l-1.6,0.2c-1,0.2-2.2,0.4-3.2,0.8
			c-1,0.4-2,0.8-2.8,1.2c-1,0.4-1.8,1-2.6,1.6c-0.8,0.4-1.4,1-2.2,1.6c-0.4,0.2-0.6,0.6-1,0.8s-0.6,0.4-1,0.6
			c-0.6,0.4-1.2,0.6-1.6,1C312,240.6,311.6,241,311.6,241z"/>
	</g>
	<g>
		<path fill="#F59EB3" d="M318.4,247.4c-7.4-22.5-22.3-5.6-22.3-5.6c-20.2-27.9-33.9-8.4-33.9-8.4s-4.6,0-3.8,4.4"/>
		<path fill="#EE3524" d="M318.4,247.4c-0.6-1.2-1.2-2.2-1.8-3.4c-0.6-1-1.4-2.2-2-3c-0.4-0.4-0.8-1-1.2-1.2l-1.2-1.2
			c-0.4-0.4-1-0.6-1.4-1c-0.4-0.2-1-0.4-1.6-0.6c-2.2-0.6-4.4,0-6.6,1.2c-1,0.6-2,1.2-3,2c-1,0.8-1.8,1.6-2.6,2.4l-0.8,1l-0.8-1
			c-1-1.4-2-2.8-3.2-4c-0.6-0.6-1.2-1.2-1.6-2c-0.6-0.6-1.2-1.2-1.8-1.8s-1.2-1.2-1.8-1.6c-0.6-0.6-1.4-1-2-1.6
			c-1.4-1-2.8-1.8-4.4-2.4c-0.8-0.2-1.6-0.6-2.4-0.8c-0.8-0.2-1.6-0.4-2.4-0.4c-1.6-0.2-3.2,0-4.8,0.6c-1.6,0.4-3,1.2-4.4,2.2
			c-0.6,0.6-1.4,1-2,1.4c-0.6,0.6-1.2,1-1.8,1.6l-0.2,0.2h-0.2c-0.4,0-1,0-1.6,0.2c-0.4,0.2-1,0.4-1.4,0.6c-0.4,0.4-0.6,0.8-0.8,1.2
			c-0.2,0.6-0.2,1-0.2,1.6c-0.2-0.6-0.2-1.2-0.2-1.8c0-0.6,0.2-1.2,0.6-1.6c0.4-0.4,1-0.8,1.6-1s1.2-0.4,1.8-0.4l-0.4,0.2
			c0.4-0.8,1-1.6,1.6-2.2c0.6-0.6,1.2-1.4,2-1.8c1.4-1,3.2-2,5-2.6s3.6-0.8,5.6-0.6c1,0,1.8,0.2,2.8,0.4c1,0.2,1.8,0.6,2.6,0.8
			c1.6,0.8,3.2,1.6,4.8,2.6c0.8,0.6,1.4,1,2.2,1.6c0.6,0.6,1.4,1.2,2,1.8s1.2,1.2,1.8,1.8c0.6,0.6,1.2,1.2,1.8,2
			c1.2,1.4,2.2,2.8,3.2,4.2h-1.6c1-1,1.8-1.8,2.8-2.6s2.2-1.6,3.2-2.2c1.2-0.6,2.4-1.2,3.8-1.4c1.4-0.2,2.8-0.2,4.2,0
			c0.6,0.2,1.4,0.4,2,0.8s1.2,0.8,1.8,1.2s1,0.8,1.4,1.4c0.4,0.6,0.8,1.2,1,1.8c0.6,1.2,1.2,2.4,1.6,3.6
			C317.8,244.8,318.2,246,318.4,247.4z"/>
	</g>
</g>
<g id="belt">
	<path d="M301.2,212.5h-34.1c0,0-0.6-11.2,5-23.5h30.1L301.2,212.5z"/>
	<path fill="#E46B1F" stroke="#000000" stroke-miterlimit="10" d="M297.2,185.8c0-1.4,1-2.4,2.4-2.4l31.5-0.2
		c1.4,0.2,2.4,1.2,2.2,2.6l0.2,28.7c0,1.4-1,2.4-2.4,2.4l-31.5,0.2c-1.4-0.2-2.4-1.2-2.2-2.6L297.2,185.8z"/>
	<g>
		<path d="M330,197.3l-0.2-0.4c-0.4-0.4-1-0.6-1.6-0.6h-2v-4.8c0-0.8-0.6-1.6-1.4-1.6h-19c-0.8,0-1.4,0.6-1.4,1.4v17.4
			c0,0.8,0.6,1.6,1.4,1.6h19c0.8,0,1.4-0.6,1.4-1.4v-6.8h2c1.4,0,1.8-0.6,1.8-1.4V197.3L330,197.3z"/>
		<path fill="#E46B1F" d="M317,197.5c0-0.2,0.4-0.2,0.8-0.2h10.4c0.4,0,0.8,0.2,0.8,0.4v3.4c0,0.2-0.4,0.2-0.8,0.2h-10.4
			c-0.4,0-0.8-0.2-0.8-0.4V197.5z"/>
	</g>
</g>
<g>
	<path d="M333.9,277l-58.9,2.4l1.4,1.6c0.6,0.6,57.3,62.3,68.2,135.7c10,67.4-17,120.3-21.8,128.9c-1.6-1.6-4.8-3.4-7.4-3.4
		c-1.8,0-3.2,1-4,2.6c-0.4,1-1,2.2-1.6,3.8c-1.8,3.8-4.2,9-6.4,17c-4.2,15.2-3.4,18.6-2.6,19.8c0.4,0.6,1,0.8,1.6,0.8
		c1.8,0,4.4-3,6.6-5.8l-5.6,21.8c-1.4,7-1,8.4-0.6,9c0.2,0.4,0.6,0.6,1,0.6s1.4,0,3.4-3.6c18.2-19.4,75.4-131.3,76.8-195.4
		c1.4-65.1-49.5-134.5-50.1-135.3L333.9,277z"/>
	<path d="M475.6,412.1c-10-64.5-82-137.5-82.8-138.1l-0.4-0.4l-55.3,3.6l2.2,1.6c0.8,0.6,76,58.1,99.6,128.5
		c21.4,63.9,8.2,114.9,5.6,123.9c-1.4-1-3.8-1.8-5.6-1.8c-2.4,0-4,1.2-4.4,3.4c-0.6,1.2-4.8,10.6-6.4,21.2
		c-2.8,17-1.6,20.6-0.4,22.1c0.4,0.6,1,0.8,1.8,0.8c2.2,0,5-3.8,7-7l-1.8,23.9c-0.2,6.6,0.4,8.2,1,8.8c0.2,0.2,0.6,0.4,1,0.4
		s1.6,0,3-4.2C452.1,579.1,486,479.3,475.6,412.1z"/>
</g>
</svg>
